<?xml version="1.0" encoding="UTF-8" standalone="no"?>
<!-- Created with Inkscape (http://www.inkscape.org/) -->

<svg
   xmlns:dc="http://purl.org/dc/elements/1.1/"
   xmlns:cc="http://creativecommons.org/ns#"
   xmlns:rdf="http://www.w3.org/1999/02/22-rdf-syntax-ns#"
   xmlns:svg="http://www.w3.org/2000/svg"
   xmlns="http://www.w3.org/2000/svg"
   xmlns:sodipodi="http://sodipodi.sourceforge.net/DTD/sodipodi-0.dtd"
   xmlns:inkscape="http://www.inkscape.org/namespaces/inkscape"
   version="1.1"
   id="svg981"
   width="578.1333"
   height="594.1333"
   viewBox="0 0 578.1333 594.1333"
   sodipodi:docname="tcticongreen.svg"
   inkscape:version="0.92.4 (5da689c313, 2019-01-14)">
  <metadata
     id="metadata987">
    <rdf:RDF>
      <cc:Work
         rdf:about="">
        <dc:format>image/svg+xml</dc:format>
        <dc:type
           rdf:resource="http://purl.org/dc/dcmitype/StillImage" />
        <dc:title></dc:title>
      </cc:Work>
    </rdf:RDF>
  </metadata>
  <defs
     id="defs985" />
  <sodipodi:namedview
     pagecolor="#ffffff"
     bordercolor="#666666"
     borderopacity="1"
     objecttolerance="10"
     gridtolerance="10"
     guidetolerance="10"
     inkscape:pageopacity="0"
     inkscape:pageshadow="2"
     inkscape:window-width="1366"
     inkscape:window-height="691"
     id="namedview983"
     showgrid="false"
     inkscape:zoom="0.82809699"
     inkscape:cx="289.06665"
     inkscape:cy="297.06665"
     inkscape:window-x="0"
     inkscape:window-y="24"
     inkscape:window-maximized="1"
     inkscape:current-layer="svg981" />
  <path
     style="fill:#000000;stroke-width:1.15803194"
     d="m 309.08924,584.77424 c 2.19181,-4.17093 18.02277,-24.20008 62.52101,-79.10087 90.5324,-111.69652 138.67451,-184.83261 152.0071,-230.92471 1.69614,-5.86373 3.82852,-11.81938 4.7386,-13.23478 1.59855,-2.48612 1.80314,-2.51315 6.02797,-0.79625 11.1452,4.52922 37.08909,22.70551 38.47572,26.9561 1.56582,4.79996 -12.84084,22.47563 -55.72118,68.36479 -28.76786,30.78644 -45.88807,49.65957 -45.88807,50.5865 0,0.84384 13.9077,6.38154 35.24548,14.03384 20.78057,7.45249 34.5,13.31681 35.74705,15.27998 0.48455,0.76279 -0.0876,2.05913 -1.31361,2.97606 -3.65941,2.73697 -193.48565,125.86839 -213.35356,138.39251 -10.25216,6.46265 -19.11217,11.75027 -19.68889,11.75027 -0.57671,0 -0.0357,-1.92755 1.20238,-4.28344 z m -51.03467,-4.6639 C 215.83104,554.37404 33.187832,435.68253 34.242039,434.66476 c 0.470651,-0.45439 17.424404,-6.51394 37.675027,-13.46569 20.250624,-6.95174 37.281274,-12.9173 37.845894,-13.25682 0.56462,-0.33949 -11.787909,-14.34129 -27.450055,-31.11506 -37.393088,-40.0471 -69.932998,-75.24855 -73.9400511,-79.98779 -1.7670895,-2.08996 -3.2128871,-4.81301 -3.2128871,-6.0512 0,-2.97046 9.4660022,-12.07756 18.2356952,-17.54428 8.651562,-5.39309 22.668076,-12.01221 25.436783,-12.01221 2.990566,0 4.97837,3.66659 9.183244,16.93892 4.780087,15.08788 7.985654,22.71624 16.552923,39.39125 21.842431,42.51337 65.267538,102.99794 143.786058,200.27225 31.71761,39.294 51.42931,64.37708 53.38471,67.93187 0.65029,1.18219 0.7184,2.14942 0.15135,2.14942 -0.56703,0 -6.79331,-3.51228 -13.83616,-7.80508 z m 14.1518,-89.51684 c -34.97687,-27.30462 -81.00877,-65.27238 -81.94291,-67.58767 -1.52669,-3.78396 -17.217,-64.37308 -17.217,-66.48452 0,-2.43966 3.5429,-1.8348 25.24167,4.30932 25.71629,7.28172 33.61177,8.84254 50.84702,10.05173 20.11129,1.41095 64.12264,1.42145 83.8071,0.02 16.84208,-1.1991 21.51421,-2.22017 50.04117,-10.93638 11.182,-3.41658 21.08789,-6.21197 22.01309,-6.21197 0.92518,0 1.67072,0.89953 1.65676,1.99893 -0.0415,3.25757 -4.19527,21.01414 -10.65296,45.53845 l -6.05079,22.979 -32.93873,26.70891 c -43.12233,34.96652 -65.45064,52.40958 -67.08778,52.40958 -0.72928,0 -8.70176,-5.75791 -17.71664,-12.79537 z M 257.41528,329.74754 C 239.73147,327.05226 216.37053,319.44763 188.89588,307.44257 164.00145,296.56495 73.788002,251.43465 41.087977,233.49999 30.162023,227.50755 22.820108,221.96609 24.124791,220.69674 c 0.421154,-0.40977 3.854833,-1.53056 7.630396,-2.49067 12.882015,-3.27585 87.695283,-18.65592 90.723593,-18.6509 2.65084,0.004 71.75015,22.3416 139.98553,45.25207 l 23.0851,7.75097 9.14149,-2.09678 c 15.03603,-3.44879 42.50571,-12.09765 102.42568,-32.24883 l 56.77069,-19.09208 27.75957,5.38338 c 36.80457,7.13745 63.74609,12.86561 72.30485,15.37307 l 6.9763,2.04386 -5.21525,2.95039 c -13.63229,7.7121 -90.95732,47.60163 -120.27031,62.04363 -38.35932,18.89897 -55.29685,26.25979 -76.31203,33.16421 -26.02511,8.5504 -34.66062,9.88028 -66.91977,10.30568 -15.49722,0.20436 -31.15513,-0.0824 -34.79535,-0.6372 z m 6.03157,-108.89779 C 200.5845,199.57534 170.63707,188.77281 160.3073,183.64562 c -2.88467,-1.43182 -4.8689,-3.22365 -4.86539,-4.39361 0.0198,-6.63261 28.91677,-122.071021 33.66262,-134.476818 1.93584,-5.060318 2.98512,-6.1294 9.20632,-9.379985 8.97331,-4.68859 25.4527,-10.357208 62.35822,-21.450147 l 29.50808,-8.8694397 46.21694,14.0034267 c 25.41932,7.701882 47.84089,14.508184 49.82573,15.125117 4.06078,1.262169 2.62408,-3.683299 23.3128,80.248316 13.32395,54.05363 15.38058,66.05133 11.90246,69.43529 -3.1609,3.07534 -122.02442,42.59644 -131.57252,43.74674 -3.71054,0.44703 -9.25449,-0.97692 -26.41571,-6.78476 z"
     id="path991"
     inkscape:connector-curvature="0" />
</svg>
